<?xml version="1.0" encoding="UTF-8" standalone="no"?>
<svg
   xmlns:dc="http://purl.org/dc/elements/1.1/"
   xmlns:cc="http://creativecommons.org/ns#"
   xmlns:rdf="http://www.w3.org/1999/02/22-rdf-syntax-ns#"
   xmlns:svg="http://www.w3.org/2000/svg"
   xmlns="http://www.w3.org/2000/svg"
   id="svg8"
   version="1.1"
   viewBox="0 0 210 297"
   height="297mm"
   width="210mm">
  <defs
     id="defs2" />
  <metadata
     id="metadata5">
    <rdf:RDF>
      <cc:Work
         rdf:about="">
        <dc:format>image/svg+xml</dc:format>
        <dc:type
           rdf:resource="http://purl.org/dc/dcmitype/StillImage" />
        <dc:title></dc:title>
      </cc:Work>
    </rdf:RDF>
  </metadata>
  <g
     id="layer1">
    <path
       d="m 13.232462,138.82806 14.987115,-2.9871 14.983044,2.9871 z m 30.059294,-2.99603 h 4.798378 c 0.05158,0 0.0931,0.0415 0.0931,0.0931 v 7.79838 c 0,0.0516 -0.04152,0.0931 -0.0931,0.0931 h -4.798378 c -0.05158,0 -0.0931,-0.0415 -0.0931,-0.0931 v -7.79838 c 0,-0.0516 0.04152,-0.0931 0.0931,-0.0931 z m -30.001343,2.99603 h 29.854256 c 0.03211,0 0.05795,0.0259 0.05795,0.058 v 4.85426 c 0,0.0321 -0.02585,0.0579 -0.05795,0.0579 H 13.290413 c -0.0321,0 -0.05795,-0.0258 -0.05795,-0.0579 v -4.85426 c 0,-0.0321 0.02585,-0.058 0.05795,-0.058 z m -4.9566343,-3.0072 h 4.7983773 c 0.05158,0 0.0931,0.0415 0.0931,0.0931 v 7.79838 c 0,0.0516 -0.04152,0.0931 -0.0931,0.0931 H 8.3337787 c -0.051576,0 -0.093098,-0.0415 -0.093098,-0.0931 v -7.79838 c 0,-0.0516 0.041522,-0.0931 0.093098,-0.0931 z"
       style="fill:none;fill-rule:evenodd;stroke:#000000;stroke-width:0.015;stroke-linecap:butt;stroke-linejoin:miter;stroke-miterlimit:4;stroke-dasharray:none;stroke-opacity:1"
       id="path885" />
  </g>
</svg>
